<?xml version="1.0" encoding="UTF-8" standalone="no"?>
<svg
   xmlns:dc="http://purl.org/dc/elements/1.1/"
   xmlns:cc="http://creativecommons.org/ns#"
   xmlns:rdf="http://www.w3.org/1999/02/22-rdf-syntax-ns#"
   xmlns:svg="http://www.w3.org/2000/svg"
   xmlns="http://www.w3.org/2000/svg"
   xmlns:sodipodi="http://sodipodi.sourceforge.net/DTD/sodipodi-0.dtd"
   xmlns:inkscape="http://www.inkscape.org/namespaces/inkscape"
   aria-hidden="true"
   focusable="false"
   data-prefix="far"
   data-icon="file"
   class="svg-inline--fa fa-file fa-w-12"
   role="img"
   viewBox="0 0 384 512"
   version="1.1"
   id="svg4"
   sodipodi:docname="file-regular.svg"
   inkscape:version="1.0.2-2 (e86c870879, 2021-01-15)">
  <metadata
     id="metadata10">
    <rdf:RDF>
      <cc:Work
         rdf:about="">
        <dc:format>image/svg+xml</dc:format>
        <dc:type
           rdf:resource="http://purl.org/dc/dcmitype/StillImage" />
      </cc:Work>
    </rdf:RDF>
  </metadata>
  <defs
     id="defs8" />
  <sodipodi:namedview
     pagecolor="#ffffff"
     bordercolor="#666666"
     borderopacity="1"
     objecttolerance="10"
     gridtolerance="10"
     guidetolerance="10"
     inkscape:pageopacity="0"
     inkscape:pageshadow="2"
     inkscape:window-width="1920"
     inkscape:window-height="1017"
     id="namedview6"
     showgrid="false"
     inkscape:zoom="1.6601562"
     inkscape:cx="192"
     inkscape:cy="207.81176"
     inkscape:window-x="-8"
     inkscape:window-y="-8"
     inkscape:window-maximized="1"
     inkscape:current-layer="svg4" />
  <path
     style="fill:#811f1f;fill-opacity:1;stroke:#a20000;stroke-width:0.362616;stroke-dasharray:0.362616, 0.725233"
     d="M 43.52,511.38769 C 37.101768,510.68498 31.993015,509.1517 26.352941,506.23537 14.48642,500.09951 6.3040898,490.2241 2.1648647,477.0423 L 0.75294118,472.54588 V 256 39.454118 L 2.1648647,34.957699 C 4.8625989,26.366483 8.6771435,20.020423 14.726222,14.060024 22.115791,6.778785 32.094249,1.966896 42.616471,0.610572 46.209182,0.147469 79.270484,0.008414 153.44941,0.144412 c 119.66055,0.219384 108.169,-0.294123 119.86824,5.356391 l 6.3247,3.054716 46.58327,46.470476 c 26.31897,26.255234 47.63883,48.006715 49.00977,50.001955 3.30406,4.80868 5.70571,10.29852 7.13138,16.30136 1.17756,4.95817 1.19158,7.36988 1.03699,178.42252 l -0.1567,173.39641 -1.42444,4.21647 c -5.72382,16.94305 -17.81147,28.48871 -34.50768,32.96043 l -5.02788,1.34661 -147.2753,0.0888 C 114.01035,511.8094 45.839059,511.64159 43.52,511.38769 Z M 336.56471,320.15059 V 175.88706 h -52.62367 c -32.82982,0 -53.8275,-0.2283 -55.82417,-0.60696 -7.81849,-1.48275 -14.18304,-6.43051 -17.62877,-13.7045 l -1.92339,-4.06031 -0.16586,-54.9647 -0.16586,-54.964708 H 127.83414 47.435294 V 256 464.41412 H 192 336.56471 Z m -4.21647,-192.00178 c 0,-0.0838 -17.21224,-17.363 -38.24942,-38.398222 L 255.84941,51.504734 v 38.398219 38.398227 h 38.24941 c 21.03718,0 38.24942,-0.0686 38.24942,-0.15237 z"
     id="path847" />
  <path
     style="fill:#811f1f;fill-opacity:1;stroke:#a20000;stroke-width:0.362616;stroke-dasharray:0.362616, 0.725233"
     d="M 243.26715,364.87529 C 241.98437,361.43528 192,213.39706 192,213.03788 c 0,-0.22401 4.13459,-0.40729 9.18798,-0.40729 h 9.18799 l 21.59397,64.79138 c 11.87669,35.63525 21.76939,64.61972 21.98378,64.40993 0.2144,-0.2098 10.03467,-29.29815 21.82284,-64.64079 l 21.43302,-64.25935 9.13639,-0.16627 c 5.02501,-0.0915 9.14124,0.0441 9.14718,0.30117 0.006,0.2571 -11.58182,34.82253 -25.75059,76.81207 l -25.76138,76.34462 -10.10432,0.004 c -9.92879,0.004 -10.1131,-0.0199 -10.60971,-1.35167 z"
     id="path849" />
  <path
     style="fill:#811f1f;fill-opacity:1;stroke:#a20000;stroke-width:0.362616;stroke-dasharray:0.362616, 0.725233"
     d="m 130.56,368.84871 c -16.60175,-1.58158 -28.69588,-6.82798 -38.796711,-16.8299 -12.843727,-12.71796 -19.759266,-29.91457 -21.576697,-53.65395 -2.251579,-29.41025 5.687199,-55.93601 21.3589,-71.36629 21.127958,-20.80247 56.930818,-23.15448 83.728048,-5.50038 l 4.07705,2.68597 v 10.57843 10.57844 l -3.46353,-3.29021 c -6.52898,-6.20225 -16.29494,-11.76441 -24.84706,-14.15153 -5.5711,-1.55504 -22.10441,-1.56034 -27.70824,-0.009 -18.40772,5.0963 -29.81249,20.14257 -33.422493,44.09419 -1.074474,7.12891 -1.209541,25.21468 -0.247248,33.10716 1.704273,13.97803 6.589107,25.89414 13.764661,33.57766 5.15886,5.52405 9.40904,8.44044 15.57108,10.68458 6.70026,2.44014 12.77762,3.25991 21.07817,2.84322 13.77367,-0.69146 25.64818,-5.85201 36.11231,-15.69408 l 3.16235,-2.97436 v 10.32152 10.32153 l -2.86118,2.11237 c -4.69011,3.46265 -15.67579,8.60906 -21.83529,10.22908 -8.13316,2.1391 -17.06606,3.00497 -24.09412,2.33543 z"
     id="path851" />
</svg>
