<?xml version="1.0" encoding="UTF-8" standalone="no"?>
<svg
   xmlns:dc="http://purl.org/dc/elements/1.1/"
   xmlns:cc="http://creativecommons.org/ns#"
   xmlns:rdf="http://www.w3.org/1999/02/22-rdf-syntax-ns#"
   xmlns:svg="http://www.w3.org/2000/svg"
   xmlns="http://www.w3.org/2000/svg"
   xmlns:sodipodi="http://sodipodi.sourceforge.net/DTD/sodipodi-0.dtd"
   xmlns:inkscape="http://www.inkscape.org/namespaces/inkscape"
   aria-hidden="true"
   focusable="false"
   data-prefix="fab"
   data-icon="github"
   class="svg-inline--fa fa-github fa-w-16"
   role="img"
   viewBox="0 0 496 512"
   version="1.1"
   id="svg4"
   sodipodi:docname="github.svg"
   inkscape:version="1.0.2-2 (e86c870879, 2021-01-15)">
  <metadata
     id="metadata10">
    <rdf:RDF>
      <cc:Work
         rdf:about="">
        <dc:format>image/svg+xml</dc:format>
        <dc:type
           rdf:resource="http://purl.org/dc/dcmitype/StillImage" />
      </cc:Work>
    </rdf:RDF>
  </metadata>
  <defs
     id="defs8" />
  <sodipodi:namedview
     pagecolor="#ffffff"
     bordercolor="#666666"
     borderopacity="1"
     objecttolerance="10"
     gridtolerance="10"
     guidetolerance="10"
     inkscape:pageopacity="0"
     inkscape:pageshadow="2"
     inkscape:window-width="1920"
     inkscape:window-height="1017"
     id="namedview6"
     showgrid="false"
     inkscape:zoom="1.6601562"
     inkscape:cx="248"
     inkscape:cy="256"
     inkscape:window-x="-8"
     inkscape:window-y="-8"
     inkscape:window-maximized="1"
     inkscape:current-layer="svg4" />
  <path
     style="fill:#211f1f;fill-opacity:1;stroke:#a20000;stroke-width:0.362616;stroke-dasharray:0.362616, 0.725233"
     d="m 169.09176,482.58445 c -9.86736,-2.73454 -34.20583,-13.84349 -46.08,-21.03257 C 104.01387,450.04981 89.106938,438.44807 74.229706,423.58588 31.271678,380.67127 5.6285732,324.2632 0.98029405,262.45647 0.10150858,250.77153 0.59366864,226.03361 1.9330053,214.56941 9.6646939,148.38917 41.460694,90.942916 92.291765,51.317046 144.10948,10.922025 212.37746,-6.575844 281.30652,2.870382 388.4978,17.560168 472.57327,96.06251 491.58428,199.20941 c 2.99296,16.23872 3.65042,24.23152 3.66656,44.57412 0.0163,20.57467 -0.50933,27.57334 -3.32518,44.27294 -12.11933,71.87474 -53.26115,133.83423 -113.65345,171.16183 -13.54263,8.37051 -32.79382,17.50426 -47.39239,22.4854 -6.4438,2.19866 -13.05793,1.20121 -16.44166,-2.47952 -3.2825,-3.5706 -3.1909,-2.04015 -3.19352,-53.36013 -0.002,-51.47793 -0.0883,-53.0908 -3.37565,-63.52037 -0.86966,-2.75914 -2.25964,-6.37192 -3.08883,-8.02839 -1.76336,-3.5226 -6.08758,-9.74151 -7.91813,-11.38747 -0.70188,-0.63111 -1.27615,-1.3415 -1.27615,-1.57864 0,-0.23714 1.96518,-0.61876 4.36706,-0.84806 8.66162,-0.82685 25.60911,-3.43704 33.28,-5.12566 33.37311,-7.34657 53.49132,-21.54343 65.02147,-45.88382 6.62648,-13.98863 9.93303,-29.67638 10.90361,-51.73164 1.15764,-26.30555 -4.60249,-42.67883 -21.88413,-62.20611 l -3.60995,-4.07904 1.11606,-3.58594 c 2.70527,-8.69204 3.26115,-13.1176 3.25359,-25.90303 -0.008,-13.86181 -0.90979,-19.79234 -4.87254,-32.05032 -2.42224,-7.49274 -2.38701,-7.46666 -9.87164,-7.30807 -11.71643,0.24826 -31.45002,8.41699 -53.00706,21.94231 l -8.73411,5.47996 -8.13177,-1.86748 c -20.51262,-4.71075 -30.59757,-5.77287 -54.81412,-5.77287 -24.11208,0 -31.97157,0.81885 -52.82407,5.50353 l -9.75583,2.19173 -5.60417,-3.61946 c -19.84892,-12.81946 -40.58376,-22.11506 -52.58769,-23.57551 -5.27354,-0.6416 -10.21262,-0.30536 -11.06736,0.75343 -0.87532,1.08429 -4.06882,11.62154 -5.41196,17.85726 -3.27531,15.20617 -2.68228,33.34285 1.52861,46.74858 l 0.97138,3.0925 -3.75373,4.43691 c -11.277699,13.33026 -16.714693,25.09445 -18.750803,40.57169 -0.929629,7.06651 -0.384524,32.75559 0.869286,40.9664 5.411081,35.43548 19.570197,56.89608 45.707277,69.27734 13.74169,6.5095 35.61901,11.63083 59.32847,13.88838 2.40189,0.2287 4.36706,0.52282 4.36706,0.65358 0,0.13077 -1.50406,2.19646 -3.34235,4.59041 -5.13539,6.68765 -8.86233,15.12567 -10.56911,23.92911 -0.41749,2.15342 -1.04974,4.23043 -1.40498,4.61558 -0.89237,0.9675 -9.88491,4.04606 -15.70473,5.37645 -7.15189,1.6349 -18.37881,1.51057 -24.68844,-0.27342 -12.91663,-3.65203 -22.13163,-10.97714 -30.184,-23.99359 -7.15019,-11.55811 -13.43005,-17.59494 -23.433445,-22.52661 -8.044635,-3.966 -14.295173,-5.56049 -20.046234,-5.11373 -2.411785,0.18736 -5.190138,0.75697 -6.174118,1.26581 -1.543005,0.79792 -1.78906,1.2652 -1.78906,3.39757 0,2.25656 0.355304,2.82144 4.069623,6.47005 2.238295,2.19869 5.59728,4.85977 7.464418,5.91352 1.867137,1.05374 5.172013,3.69312 7.34417,5.86528 6.805161,6.80516 11.57417,14.77664 20.555806,34.35938 6.37801,13.90603 18.85968,22.23461 38.9613,25.99753 7.30301,1.36709 29.40757,1.40202 37.55762,0.0593 2.98165,-0.4912 5.52373,-0.80451 5.64905,-0.69624 0.43307,0.37414 0.84814,59.63801 0.4369,62.38035 -1.18252,7.8856 -8.71061,12.17271 -17.22948,9.81189 z"
     id="path835" />
  <path
     style="fill:#211f1f;fill-opacity:1;stroke:#a20000;stroke-width:0.362616;stroke-dasharray:0.362616, 0.725233"
     d=""
     id="path837" />
  <path
     style="fill:#211f1f;fill-opacity:1;stroke:#a20000;stroke-width:0.362616;stroke-dasharray:0.362616, 0.725233"
     d="m 98.570136,357.84398 c -1.862861,-1.86286 -2.232043,-3.55054 -1.037901,-4.74469 1.079331,-1.07933 1.998484,-0.88945 4.049785,0.83661 1.92302,1.61811 2.39468,3.68175 1.13045,4.94598 -1.13806,1.13807 -2.2433,0.86114 -4.142334,-1.0379 z"
     id="path839" />
  <path
     style="fill:#211f1f;fill-opacity:1;stroke:#a20000;stroke-width:0.362616;stroke-dasharray:0.362616, 0.725233"
     d="m 108.94697,372.53901 c -3.2059,-2.69759 -3.06514,-6.91077 0.23089,-6.91077 2.94732,0 5.75326,5.73146 3.77461,7.71011 -1.07458,1.07458 -1.99731,0.89044 -4.0055,-0.79934 z"
     id="path841" />
  <path
     style="fill:#211f1f;fill-opacity:1;stroke:#a20000;stroke-width:0.362616;stroke-dasharray:0.362616, 0.725233"
     d=""
     id="path843" />
  <path
     style="fill:#211f1f;fill-opacity:1;stroke:#a20000;stroke-width:0.362616;stroke-dasharray:0.362616, 0.725233"
     d="m 122.32766,387.62081 c -2.30852,-0.97065 -3.83354,-3.05499 -3.83354,-5.23953 0,-3.84316 5.66284,-3.15226 7.60873,0.92832 1.671,3.50412 -0.31117,5.76773 -3.77519,4.31121 z"
     id="path845" />
  <path
     style="fill:#211f1f;fill-opacity:1;stroke:#a20000;stroke-width:0.362616;stroke-dasharray:0.362616, 0.725233"
     d="m 139.38737,397.53684 c -1.97485,-0.58566 -3.2567,-1.55566 -4.07406,-3.08291 -0.43951,-0.82123 -0.28295,-1.39018 0.63524,-2.30836 2.31855,-2.31855 8.0457,-0.91791 8.81729,2.15637 0.64525,2.57087 -2.08345,4.21206 -5.37847,3.2349 z"
     id="path847" />
  <path
     style="fill:#211f1f;fill-opacity:1;stroke:#a20000;stroke-width:0.362616;stroke-dasharray:0.362616, 0.725233"
     d="m 176.62118,398.03787 c -2.58211,-1.46422 -2.65365,-2.4416 -0.34751,-4.74773 1.87931,-1.87932 3.82094,-2.21068 6.30956,-1.07679 2.97245,1.35434 2.38522,4.20531 -1.17237,5.69176 -2.43143,1.01592 -3.19494,1.03708 -4.78968,0.13276 z"
     id="path849" />
  <path
     style="fill:#211f1f;fill-opacity:1;stroke:#a20000;stroke-width:0.362616;stroke-dasharray:0.362616, 0.725233"
     d=""
     id="path851" />
  <path
     style="fill:#211f1f;fill-opacity:1;stroke:#a20000;stroke-width:0.362616;stroke-dasharray:0.362616, 0.725233"
     d=""
     id="path853" />
  <path
     style="fill:#211f1f;fill-opacity:1;stroke:#a20000;stroke-width:0.362616;stroke-dasharray:0.362616, 0.725233"
     d=""
     id="path855" />
  <path
     style="fill:#211f1f;fill-opacity:1;stroke:#a20000;stroke-width:0.362616;stroke-dasharray:0.362616, 0.725233"
     d="m 157.18839,400.16348 c -1.12805,-0.45446 -1.99893,-2.38644 -1.57441,-3.49271 0.44673,-1.16418 3.30837,-2.73195 4.98659,-2.73195 3.86546,0 6.20328,3.4929 3.69645,5.52281 -1.29943,1.05221 -5.2667,1.44391 -7.10863,0.70185 z"
     id="path857" />
  <path
     style="fill:#211f1f;fill-opacity:1;stroke:#a20000;stroke-width:0.362616;stroke-dasharray:0.362616, 0.725233"
     d="m 108.95394,372.01007 c -0.85392,-0.85117 -1.44679,-2.20594 -1.50588,-3.44109 -0.0853,-1.78241 0.10097,-2.06021 1.48911,-2.22107 2.12438,-0.24617 4.2655,2.40487 4.01451,4.9706 -0.22904,2.34133 -2.03009,2.65289 -3.99774,0.69156 z"
     id="path859" />
  <path
     style="fill:#211f1f;fill-opacity:1;stroke:#a20000;stroke-width:0.362616;stroke-dasharray:0.362616, 0.725233"
     d=""
     id="path861" />
</svg>
