<?xml version="1.0" encoding="UTF-8" standalone="no"?>
<svg
   xmlns:dc="http://purl.org/dc/elements/1.1/"
   xmlns:cc="http://creativecommons.org/ns#"
   xmlns:rdf="http://www.w3.org/1999/02/22-rdf-syntax-ns#"
   xmlns:svg="http://www.w3.org/2000/svg"
   xmlns="http://www.w3.org/2000/svg"
   xmlns:sodipodi="http://sodipodi.sourceforge.net/DTD/sodipodi-0.dtd"
   xmlns:inkscape="http://www.inkscape.org/namespaces/inkscape"
   aria-hidden="true"
   focusable="false"
   data-prefix="fab"
   data-icon="google-drive"
   class="svg-inline--fa fa-google-drive fa-w-16"
   role="img"
   viewBox="0 0 512 512"
   version="1.1"
   id="svg4"
   sodipodi:docname="google-drive.svg"
   inkscape:version="1.0.2-2 (e86c870879, 2021-01-15)">
  <metadata
     id="metadata10">
    <rdf:RDF>
      <cc:Work
         rdf:about="">
        <dc:format>image/svg+xml</dc:format>
        <dc:type
           rdf:resource="http://purl.org/dc/dcmitype/StillImage" />
      </cc:Work>
    </rdf:RDF>
  </metadata>
  <defs
     id="defs8" />
  <sodipodi:namedview
     pagecolor="#ffffff"
     bordercolor="#666666"
     borderopacity="1"
     objecttolerance="10"
     gridtolerance="10"
     guidetolerance="10"
     inkscape:pageopacity="0"
     inkscape:pageshadow="2"
     inkscape:window-width="1920"
     inkscape:window-height="1017"
     id="namedview6"
     showgrid="false"
     inkscape:zoom="1.6601562"
     inkscape:cx="256"
     inkscape:cy="256"
     inkscape:window-x="-8"
     inkscape:window-y="-8"
     inkscape:window-maximized="1"
     inkscape:current-layer="svg4" />
  <path
     style="fill:#ffdb04;fill-opacity:1;stroke:#a20000;stroke-width:0.362616;stroke-dasharray:0.362616, 0.725233"
     d="M 261.4019,179.95294 C 218.54241,105.82588 181.77729,42.262588 179.70163,38.701176 l -3.77394,-6.475294 80.24322,0.01747 80.24321,0.01747 81.31764,140.677258 c 44.72471,77.37249 81.408,140.92792 81.51843,141.23429 0.12233,0.33936 -31.08503,0.55704 -79.86059,0.55704 h -80.06137 z"
     id="path837" />
  <path
     style="fill:#1fa463;fill-opacity:1;stroke:#a20000;stroke-width:0.362616;stroke-dasharray:0.362616, 0.725233"
     d="M 40.658824,409.1848 C 18.793412,370.75704 0.90352941,338.94396 0.90352941,338.48908 c 0,-1.36279 152.95905059,-270.078188 153.45758059,-269.591202 0.25296,0.247106 18.86808,31.847442 41.36693,70.222972 37.64367,64.20754 40.84267,69.87465 40.10067,71.03936 -0.44349,0.69612 -35.41524,61.3052 -77.71502,134.68685 -42.29978,73.38165 -77.08663,133.59785 -77.304128,133.81379 -0.217491,0.21594 -18.285327,-31.04829 -40.150738,-69.47605 z"
     id="path839" />
  <path
     style="fill:#4688f4;fill-opacity:1;stroke:#a20000;stroke-width:0.362616;stroke-dasharray:0.362616, 0.725233"
     d="m 121.67529,479.57012 c 0,-0.11219 17.98098,-31.75831 39.95772,-70.3247 l 39.95772,-70.12071 154.97349,-0.15175 154.97349,-0.15174 -0.86787,1.35645 c -0.47734,0.74605 -18.57204,32.46045 -40.21044,70.47645 l -39.34256,69.12 H 276.39607 c -85.09643,0 -154.72078,-0.0918 -154.72078,-0.204 z"
     id="path841" />
</svg>
