<?xml version="1.0" encoding="UTF-8" standalone="no"?>
<svg
   xmlns:dc="http://purl.org/dc/elements/1.1/"
   xmlns:cc="http://creativecommons.org/ns#"
   xmlns:rdf="http://www.w3.org/1999/02/22-rdf-syntax-ns#"
   xmlns:svg="http://www.w3.org/2000/svg"
   xmlns="http://www.w3.org/2000/svg"
   xmlns:sodipodi="http://sodipodi.sourceforge.net/DTD/sodipodi-0.dtd"
   xmlns:inkscape="http://www.inkscape.org/namespaces/inkscape"
   aria-hidden="true"
   focusable="false"
   data-prefix="fab"
   data-icon="itch-io"
   class="svg-inline--fa fa-itch-io fa-w-16"
   role="img"
   viewBox="0 0 512 512"
   version="1.1"
   id="svg4"
   sodipodi:docname="itch-io.svg"
   inkscape:version="1.0.2-2 (e86c870879, 2021-01-15)">
  <metadata
     id="metadata10">
    <rdf:RDF>
      <cc:Work
         rdf:about="">
        <dc:format>image/svg+xml</dc:format>
        <dc:type
           rdf:resource="http://purl.org/dc/dcmitype/StillImage" />
      </cc:Work>
    </rdf:RDF>
  </metadata>
  <defs
     id="defs8" />
  <sodipodi:namedview
     pagecolor="#ffffff"
     bordercolor="#666666"
     borderopacity="1"
     objecttolerance="10"
     gridtolerance="10"
     guidetolerance="10"
     inkscape:pageopacity="0"
     inkscape:pageshadow="2"
     inkscape:window-width="1920"
     inkscape:window-height="1017"
     id="namedview6"
     showgrid="false"
     inkscape:zoom="1.6601562"
     inkscape:cx="256"
     inkscape:cy="256"
     inkscape:window-x="-8"
     inkscape:window-y="-8"
     inkscape:window-maximized="1"
     inkscape:current-layer="svg4" />
  <path
     style="fill:#fa5c5c;fill-opacity:1;stroke:#a20000;stroke-width:0.362616;stroke-dasharray:0.362616, 0.725233"
     d="M 51.164761,181.23291 C 36.729412,179.75248 20.307251,167.46112 12.651022,152.40685 8.2470939,143.7475 7.0754534,136.6461 7.3322585,120.16941 L 7.5294118,107.52 9.4524183,103.46051 C 12.106914,97.856849 18.486327,88.657943 26.897081,78.305882 36.270612,66.768823 56.77123,46.263804 65.267796,39.92693 l 6.538385,-4.876431 7.315733,-0.391604 c 21.733956,-1.163396 58.243866,-1.634409 150.374556,-1.939978 99.73894,-0.330804 140.13912,0.0256 190.64471,1.68181 l 19.87764,0.651842 3.91115,2.78747 c 17.13233,12.210203 44.57952,42.063723 55.93495,60.838829 4.96372,8.207042 5.08855,8.872492 4.74874,25.314722 -0.33245,16.08563 -0.92653,19.24607 -5.28324,28.10584 -6.49711,13.21247 -20.36872,24.86969 -33.67747,28.30138 -4.3733,1.12766 -13.05819,1.29126 -17.98721,0.33882 -11.44556,-2.21165 -22.91128,-9.14118 -30.20885,-18.25733 -5.81018,-7.25809 -10.69786,-19.56497 -10.94357,-27.55524 l -0.0833,-2.71059 -0.55686,3.31294 c -2.30181,13.69428 -6.29794,22.43208 -14.01388,30.6422 -13.76279,14.64427 -36.50659,19.36994 -54.61804,11.34846 -16.25143,-7.19769 -27.42117,-22.82369 -29.36978,-41.08713 l -0.44988,-4.21647 -0.46813,3.61412 c -1.59744,12.33282 -6.46178,22.27263 -15.04062,30.73407 -9.86256,9.72758 -22.21068,14.81586 -35.95482,14.81586 -14.57711,0 -27.69127,-5.76229 -37.68834,-16.56005 -7.08615,-7.6537 -10.96861,-15.69177 -12.83761,-26.5784 l -1.03376,-6.02146 -0.3948,4.2144 c -1.22997,13.12966 -7.7607,25.45255 -18.08393,34.12273 -16.6519,13.98544 -41.90823,14.5153 -59.4324,1.24684 -11.23116,-8.5037 -17.99915,-20.11557 -20.08978,-34.46811 l -0.7458,-5.12 -0.42604,4.37541 c -1.34101,13.77183 -10.130891,28.2427 -22.018151,36.24872 -9.572985,6.44737 -21.232009,9.50099 -32.042588,8.39231 z"
     id="path841" />
  <path
     style="fill:#fa5c5c;fill-opacity:1;stroke:#a20000;stroke-width:0.362616;stroke-dasharray:0.362616, 0.725233"
     d="M 197.27059,478.85489 C 145.71194,476.99545 102.46651,473.03912 74.517015,467.62472 L 66.2105,466.01558 64.200647,463.2572 C 49.524197,443.11485 42.27217,376.59881 44.5265,282.80471 45.338409,249.02425 47.371244,206.34633 48.485897,199.68 l 0.302152,-1.80706 5.573034,0.21811 c 8.796611,0.34428 17.08309,-1.59531 26.053035,-6.09814 8.14752,-4.08998 16.359735,-10.96213 21.191912,-17.73383 1.48873,-2.08626 2.77286,-3.7932 2.85363,-3.7932 0.0808,0 1.03689,1.37354 2.12469,3.05231 6.75658,10.42718 19.35875,19.39076 32.258,22.94424 6.67743,1.83949 23.12475,1.9938 29.5153,0.2769 13.42293,-3.60622 25.18409,-11.54735 32.53921,-21.97045 1.64979,-2.33794 3.16453,-4.26255 3.36609,-4.2769 0.20157,-0.0144 1.38772,1.512 2.6359,3.39189 6.98599,10.52165 19.26599,18.95453 33.29067,22.86126 4.72682,1.3167 20.48432,1.8117 26.5522,0.83409 15.97116,-2.57314 30.2114,-11.42539 38.52891,-23.95098 1.15496,-1.7393 2.28696,-3.16236 2.51556,-3.16236 0.22859,0 1.32596,1.42306 2.43858,3.16236 2.91448,4.55601 10.41392,11.87161 15.61579,15.23298 9.42459,6.09004 17.82589,8.68826 29.54768,9.13806 12.76247,0.48974 22.15916,-1.78637 32.52705,-7.87884 6.88788,-4.04751 15.00174,-12.06649 19.0044,-18.78215 0.55019,-0.92312 0.99942,-0.54741 3.44761,2.88342 5.89262,8.25776 16.62017,16.32189 27.07733,20.3546 7.0317,2.71171 12.84561,3.7411 19.77911,3.50204 5.94131,-0.20486 5.95817,-0.20135 6.25813,1.30047 0.16542,0.82824 0.70777,8.14683 1.20522,16.26353 3.96285,64.65984 4.07443,130.57545 0.29623,174.98353 -3.11826,36.65139 -8.96068,61.34546 -17.18397,72.63132 l -2.00985,2.75838 -8.30652,1.60263 c -25.70755,4.95997 -55.9505,7.91016 -109.80298,10.71126 -15.51414,0.80695 -111.84163,1.19506 -130.40941,0.52542 z m -73.7438,-48.52531 c 18.49211,-3.1107 34.52961,-12.91436 44.04282,-26.92318 5.87146,-8.64611 9.83063,-19.74508 10.53145,-29.52343 l 0.37972,-5.29821 1.56432,0.31811 c 3.0203,0.61418 9.472,1.49781 17.52666,2.40046 38.68021,4.33476 84.3578,4.0058 124.08471,-0.89361 5.46635,-0.67415 10.41318,-1.36639 10.99294,-1.53831 0.91333,-0.27085 1.05412,0.12642 1.05412,2.9744 0,7.55013 3.00131,18.23821 7.3582,26.20354 9.53741,17.43645 26.78801,29.0211 48.28516,32.42591 7.56764,1.1986 25.66416,0.82773 31.55877,-0.64677 8.07246,-2.01926 13.91533,-6.79194 16.38022,-13.37996 2.76876,-7.40016 2.66745,-19.83347 -0.27901,-34.24214 -1.83796,-8.98796 -15.96927,-62.09205 -20.79695,-78.153 -6.21213,-20.66673 -12.38238,-36.36618 -18.72138,-47.63428 -10.56528,-18.78063 -23.3038,-29.60487 -38.45303,-32.67449 -7.20201,-1.45932 -25.46635,-0.96067 -31.77407,0.86749 -9.22513,2.67369 -15.1929,6.16742 -22.61537,13.23977 l -4.66217,4.44225 -10.09548,-0.82706 c -13.52143,-1.10774 -54.28219,-1.10544 -67.82768,0.004 l -10.14632,0.8309 -4.00898,-3.89315 c -5.08917,-4.94192 -7.85206,-7.04054 -12.74309,-9.67912 -8.27727,-4.46537 -15.18934,-5.84947 -29.21411,-5.84995 -7.59634,-2.6e-4 -10.71364,0.25761 -14.71771,1.21747 -14.1063,3.38158 -26.50328,14.22671 -36.55448,31.9786 -6.8301,12.06295 -14.2471,31.35382 -20.698659,53.83516 -4.963459,17.29585 -17.945143,66.51056 -19.225269,72.8847 -4.892634,24.36192 -1.776669,38.82063 9.609599,44.59049 2.905514,1.47234 8.415833,2.98582 12.617103,3.46545 5.873676,0.67055 21.257696,0.36827 26.547966,-0.52165 z"
     id="path843" />
  <path
     style="fill:#fa5c5c;fill-opacity:1;stroke:#a20000;stroke-width:0.362616;stroke-dasharray:0.362616, 0.725233"
     d="m 233.43536,350.09105 c -0.17862,-0.17862 -0.32477,-5.97183 -0.32477,-12.8738 v -12.54901 l -3.76471,0.0362 c -2.07059,0.0199 -8.50823,0.25662 -14.30588,0.52598 -5.79765,0.26935 -10.61425,0.42844 -10.70357,0.35352 -0.43409,-0.36411 7.95428,-10.53606 15.07371,-18.27876 7.49251,-8.14844 35.69487,-35.64403 36.56026,-35.64403 0.70447,0 24.3849,22.93404 32.65872,31.62933 9.27386,9.74628 14.55879,15.79145 17.34181,19.83644 l 1.96512,2.8562 -3.83155,-0.34323 c -2.10736,-0.18878 -8.63738,-0.51354 -14.51116,-0.7217 l -10.67959,-0.37847 -0.16276,12.86424 -0.16275,12.86425 -22.41405,0.0738 c -12.32773,0.0406 -22.5602,-0.0724 -22.73883,-0.25098 z"
     id="path845" />
</svg>
