<?xml version="1.0" encoding="UTF-8" standalone="no"?>
<svg
   xmlns:dc="http://purl.org/dc/elements/1.1/"
   xmlns:cc="http://creativecommons.org/ns#"
   xmlns:rdf="http://www.w3.org/1999/02/22-rdf-syntax-ns#"
   xmlns:svg="http://www.w3.org/2000/svg"
   xmlns="http://www.w3.org/2000/svg"
   xmlns:sodipodi="http://sodipodi.sourceforge.net/DTD/sodipodi-0.dtd"
   xmlns:inkscape="http://www.inkscape.org/namespaces/inkscape"
   aria-hidden="true"
   focusable="false"
   data-prefix="fab"
   data-icon="linkedin"
   class="svg-inline--fa fa-linkedin fa-w-14"
   role="img"
   viewBox="0 0 448 512"
   version="1.1"
   id="svg4"
   sodipodi:docname="linkedin.svg"
   inkscape:version="1.0.2-2 (e86c870879, 2021-01-15)">
  <metadata
     id="metadata10">
    <rdf:RDF>
      <cc:Work
         rdf:about="">
        <dc:format>image/svg+xml</dc:format>
        <dc:type
           rdf:resource="http://purl.org/dc/dcmitype/StillImage" />
      </cc:Work>
    </rdf:RDF>
  </metadata>
  <defs
     id="defs8" />
  <sodipodi:namedview
     pagecolor="#ffffff"
     bordercolor="#666666"
     borderopacity="1"
     objecttolerance="10"
     gridtolerance="10"
     guidetolerance="10"
     inkscape:pageopacity="0"
     inkscape:pageshadow="2"
     inkscape:window-width="1920"
     inkscape:window-height="1017"
     id="namedview6"
     showgrid="false"
     inkscape:zoom="1.6601562"
     inkscape:cx="224"
     inkscape:cy="183.71765"
     inkscape:window-x="-8"
     inkscape:window-y="-8"
     inkscape:window-maximized="1"
     inkscape:current-layer="svg4" />
  <path
     style="fill:#2867b2;fill-opacity:1;stroke:#a20000;stroke-width:0.362616;stroke-dasharray:0.362616, 0.725233"
     d="M 24.018824,478.61244 C 13.307341,475.63766 4.7830355,467.08705 1.498314,456.02244 0.61353556,453.04206 0.52705882,435.23284 0.52705882,256 0.52705882,76.767157 0.61353556,58.957946 1.498314,55.977563 4.8101959,44.821463 13.388283,36.25255 24.097987,33.402059 26.86927,32.664455 55.465141,32.540335 224.04126,32.534208 c 179.20801,-0.0065 197.00058,0.07926 199.98118,0.964106 11.18776,3.32128 19.68772,11.941422 22.52818,22.846716 0.81905,3.144544 0.92232,25.499163 0.92232,199.65497 0,174.15581 -0.10327,196.51042 -0.92232,199.65497 -2.84046,10.9053 -11.34042,19.52544 -22.52818,22.84671 -2.98207,0.88528 -20.71161,0.96649 -200.28236,0.9174 C 68.13546,479.37654 26.159723,479.20701 24.018824,478.61244 Z M 136.05647,309.00706 V 201.78824 H 102.32471 68.592941 v 107.21882 107.21882 h 33.731769 33.73176 z m 108.00086,45.92941 c 0.25119,-66.10324 0.18208,-64.62269 3.49172,-74.8054 4.04519,-12.44573 12.3755,-20.40635 24.37693,-23.29509 6.51219,-1.56748 16.92296,-1.43273 22.50543,0.2913 13.27992,4.10123 20.1743,14.45401 22.31449,33.50801 0.36967,3.29112 0.61086,29.02936 0.61387,65.50589 l 0.005,60.0847 h 33.78597 33.78597 L 384.666,348.00941 c -0.28876,-72.78567 -0.42959,-76.50013 -3.46766,-91.46321 -4.54656,-22.39273 -13.58388,-37.95668 -27.53474,-47.42 -10.77277,-7.30752 -23.34033,-11.02915 -41.03035,-12.15032 -13.68372,-0.86726 -25.59525,0.60036 -35.67953,4.39608 -13.45872,5.06584 -25.41334,14.26856 -32.54493,25.05322 l -3.24173,4.90226 -0.16111,-14.7696 -0.16111,-14.7696 h -31.91419 -31.91418 v 107.21882 107.21882 h 33.40399 33.40399 z M 108.95059,172.61731 c 12.22923,-2.21517 22.05913,-9.4174 27.59833,-20.22092 3.35813,-6.54962 4.57737,-12.45601 4.15426,-20.12454 -0.5579,-10.11157 -4.01571,-17.80434 -11.2666,-25.06532 -21.13136,-21.160798 -57.054947,-11.443845 -64.803597,17.52869 -1.347994,5.04022 -1.371167,14.06307 -0.04939,19.22713 2.74847,10.73797 10.680687,20.57136 20.306715,25.17377 8.309507,3.97294 15.556652,5.02151 24.060272,3.48119 z"
     id="path835" />
</svg>
